<svg width="25" height="25" viewBox="0 0 25 25" fill="none" xmlns="http://www.w3.org/2000/svg">
<path d="M21.875 8.33333H20.3125V5.95238C20.3125 2.66667 16.8125 0 12.5 0C8.1875 0 4.6875 2.66667 4.6875 5.95238V8.33333H3.125C1.40625 8.33333 0 9.40476 0 10.7143V22.619C0 23.9286 1.40625 25 3.125 25H21.875C23.5938 25 25 23.9286 25 22.619V10.7143C25 9.40476 23.5938 8.33333 21.875 8.33333ZM12.5 19.0476C10.7812 19.0476 9.375 17.9762 9.375 16.6667C9.375 15.3571 10.7812 14.2857 12.5 14.2857C14.2188 14.2857 15.625 15.3571 15.625 16.6667C15.625 17.9762 14.2188 19.0476 12.5 19.0476ZM17.3438 8.33333H7.65625V5.95238C7.65625 3.91667 9.82812 2.2619 12.5 2.2619C15.1719 2.2619 17.3438 3.91667 17.3438 5.95238V8.33333Z" fill="black" fill-opacity="0.51"/>
</svg>
