<svg width="0" height="0" class="hidden">
  <symbol xmlns="http://www.w3.org/2000/svg" viewBox="0 0 497 497" id="badge">
    <path d="M472.89 331.373l23.551-32.909c1.405-1.964.002-4.694-2.413-4.694h-115.74v75.206h115.74c2.415 0 3.818-2.73 2.413-4.694l-23.551-32.909zm-448.78 0L.559 298.464c-1.405-1.964-.002-4.694 2.413-4.694h115.74v75.206H2.972c-2.415 0-3.818-2.73-2.413-4.694l23.551-32.909z" fill="#0d84fd"></path>
    <path fill="#4695fd" d="M41.969 308.846l76.743 60.13v-60.13l-28.336-20.413zm413.062 0l-76.743 60.13v-60.13l28.336-20.413z"></path>
    <path d="M450.573 122.417C387.442 55.769 279.623 27.03 254.054 20.968a24.049 24.049 0 00-11.109 0c-25.569 6.062-133.388 34.8-196.519 101.449-4.228 4.464-6.54 10.404-6.516 16.552.169 43.408 12.318 224.374 196.343 334.338a23.902 23.902 0 0024.493 0c184.025-109.964 196.174-290.93 196.343-334.338.024-6.149-2.287-12.089-6.516-16.552z" fill="#44596a"></path>
    <path d="M72.166 288.433c7.048 16.475 15.612 33.418 26.035 50.413h300.598a389.156 389.156 0 0026.035-50.413H72.166z" fill="#2d3c4f"></path>
    <path d="M248.5 432.56c-65.757-41.548-113.242-97.62-141.236-166.808-20.991-51.882-25.356-97.493-26.093-120.014 53.371-52.254 141.535-77.33 167.328-83.79 25.791 6.46 113.959 31.537 167.328 83.79-.736 22.521-5.1 68.13-26.092 120.014-27.992 69.188-75.478 125.26-141.235 166.808z" fill="#fde475"></path>
    <path d="M170.107 178.286a7.5 7.5 0 01-7.5-7.5v-14.188a7.5 7.5 0 0115 0v14.188a7.5 7.5 0 01-7.5 7.5zm156.786 0a7.5 7.5 0 01-7.5-7.5v-14.188a7.5 7.5 0 0115 0v14.188a7.5 7.5 0 01-7.5 7.5zm-78.393 7.573c-9.706 0-18.816-4.055-24.996-11.125a7.5 7.5 0 1111.294-9.872c3.331 3.811 8.325 5.996 13.702 5.996 5.376 0 10.371-2.186 13.701-5.996a7.5 7.5 0 1111.294 9.872c-6.179 7.071-15.29 11.125-24.995 11.125z" fill="#3a3c4c"></path>
    <path d="M107.264 265.752c10.635 26.285 24.09 50.672 40.285 73.094h201.902c16.195-22.422 29.65-46.809 40.285-73.094H107.264z" fill="#fdb058"></path>
    <path d="M431.001 233.64H65.999c-13.271 0-24.03 10.758-24.03 24.03v51.176h413.062V257.67c0-13.272-10.759-24.03-24.03-24.03z" fill="#83b5fd"></path>
  </symbol>
  <symbol version="1.0" xmlns="http://www.w3.org/2000/svg" viewBox="0 0 512 512" id="bag">
    <path d="M238.2 1.1C204.9 7 175.7 32.4 164.7 65c-3.9 11.3-4.7 18.5-4.7 41.7V128h-26.9c-26.2 0-26.9.1-30.1 2.3-7.2 4.8-5.8-5.6-21.1 161.8C74.3 376.4 68 447.5 68 450c0 7.7 2.8 18.1 7.1 27 5.6 11.4 16.9 22.8 27.9 28.2 14.5 7.1 5.9 6.8 153 6.8s138.5.3 153-6.8c11-5.4 22.3-16.8 27.9-28.2 4.3-8.9 7.1-19.3 7.1-27 0-2.5-6.3-73.6-13.9-157.9-15.3-167.4-13.9-157-21.1-161.8-3.2-2.2-3.9-2.3-30-2.3h-26.8l-.5-25.3c-.4-22.2-.7-26.1-2.6-32.6-8.1-27.2-26-48.7-50.6-60.6-14.4-7-21.5-8.6-39.5-9-8.5-.2-17.9 0-20.8.6zm34.8 34c10.6 2.9 19.4 8.1 27.6 16.3 8.2 8.2 13.4 17 16.4 27.6 1.7 6.1 2.2 11.4 2.7 28.2l.6 20.8H191.7l.6-20.8c.4-14.3 1.1-22.5 2.2-26.7 6.1-22.2 22.9-39.3 44.9-45.6 8.9-2.5 24.1-2.5 33.6.2zM160 186.7c0 25 .1 27 2 30.1 3 4.8 7.5 7.2 14 7.2s11-2.4 14-7.2c1.9-3.1 2-5.1 2-30.1V160h128v26.7c0 25 .1 27 2 30.1 3 4.8 7.5 7.2 14 7.2s11-2.4 14-7.2c1.9-3.1 2-5.1 2-30.1V160h16.5c9.1 0 16.5.4 16.5.8s5.9 65.1 13 143.7c8 87.5 12.8 144.7 12.5 147.5-.9 6.4-3.7 12.2-8.3 17.2-5.1 5.5-11.4 8.7-19.5 9.9-8.1 1.1-245.3 1.1-253.4 0-14.8-2.2-25.8-12.9-27.8-27.1-.3-2.8 4.5-60 12.5-147.5 7.1-78.6 13-143.3 13-143.7 0-.4 7.4-.8 16.5-.8H160v26.7z"></path>
  </symbol>
  <symbol version="1.0" xmlns="http://www.w3.org/2000/svg" viewBox="0 0 512 512" id="conversation">
    <path d="M259 5.1C205.3 12 154.8 39.3 120.8 79.9 90.4 116.2 73.3 158.3 70.1 205l-.9 12.3-3.3 2.5c-15.6 11.9-32.8 33.3-42.4 52.7-10.1 20.4-14.7 36.6-16.5 58-1.9 24.2 2.3 51.9 11.1 72.6 1.6 3.8 2.9 7.3 2.9 8 0 .7-4.8 15.1-10.6 32.1C-.2 474-.2 474.1.2 481.9c.6 9.5 3.7 15.6 10.5 20.4 6.1 4.4 9.7 5.5 17.2 5.6 5.6.1 9.9-1.1 33-9 14.6-5 28.7-9.8 31.3-10.7 4.7-1.6 4.9-1.5 12.5 1.6 34.1 14 74.9 15.4 109.9 3.7 11.6-3.9 27.5-11.7 38.4-19 10.7-7.1 26.3-21.3 33.9-30.9l5-6.3 12.8-1.2c23.9-2.3 48.8-8.6 68.7-17.4l7.9-3.5 24.6 8.5c66.4 22.9 65.1 22.5 72.6 22.5 9.8 0 17.1-3 23.9-9.5 7.5-7.3 10-14.2 9.3-25.7-.4-7.8-1.8-12.2-15.6-52.2l-15.2-43.7 2.1-4.1c3.7-7.2 8.9-21.9 12-33.4 20.4-76.7-.3-154.9-56-210.6-33.8-33.9-77.4-55.5-124.3-61.5-12.7-1.6-44.4-1.9-55.7-.4zM302.6 36c71.1 6.4 133.3 54.7 157.7 122.5 8.3 23.1 11.2 41.6 10.4 67.4-.9 27.8-5.6 47.9-17 72.6-4.2 8.9-5.1 12-5 16 0 3.7 4.3 17.3 16.2 51.5 8.9 25.6 15.9 47.1 15.6 47.7-.2.7-.9 1.3-1.5 1.3s-22.1-7.2-47.8-16.1c-33-11.4-48-16.1-51.2-16.1-3.4 0-7.6 1.4-16.7 5.6-26.2 11.9-48.9 16.8-77.9 16.7-89.4-.1-166-65.2-181.9-154.6-2.6-14.5-3.1-39.9-1-53.5 6.4-43.6 23.3-77.7 53-107.5 24.5-24.4 53-40.6 86.4-48.9 8.2-2.1 15-3.2 30.6-5 6.2-.7 20.3-.5 30.1.4zM81 290.2c13.1 38.5 38.2 74.1 70.4 99.7 27.2 21.5 62.6 37.8 93.9 43.2 6.7 1.1 6.8 1.1 5 3.1-3.8 4.3-17.4 13.9-26.5 18.7-19.6 10.5-36.1 14.6-58.8 14.6-21.5 0-33.8-2.7-54.3-11.6-5.2-2.3-10.4-3.9-12.6-3.9-2.3 0-16.2 4.3-34.2 10.5-16.7 5.7-30.4 10.3-30.6 10.2-.1-.2 4.5-13.9 10.2-30.6 6.7-19.4 10.5-31.8 10.5-34.5 0-2.5-1.2-6.6-3-10.5-4.4-9.2-8.9-22.4-10.8-31.6-2.3-11.5-2.3-37.3.1-48.5 4.3-19.6 13-38.4 25-53.5l7.1-8.9 2.2 10.6c1.2 5.9 4.1 16.2 6.4 23z"></path>
    <path d="M187.7 141.1c-10.2 5.4-10.5 20.8-.5 26.9 3.2 2 4.9 2 99.8 1.8 94.7-.3 96.5-.3 99.2-2.3 8.4-6.3 8.2-19.4-.5-25.9-2.8-2.1-3-2.1-98.5-2.3-94.1-.2-95.8-.2-99.5 1.8zm-.5 62.9c-10.1 6.2-9.6 22 .8 27.3 3.3 1.6 9.6 1.7 99.2 1.5 95.5-.3 95.7-.3 98.5-2.4 4.4-3.3 6.7-8 6.6-13.7-.1-5.5-2-8.9-7.3-12.5l-3.3-2.2h-95.6c-93.6 0-95.7 0-98.9 2zm3.9 61c-1.8.4-5 2.4-6.9 4.4-3.1 3-3.6 4.2-3.9 9.3-.5 7.5 1.8 11.9 7.8 15.1l4.3 2.3 60.1-.3 60.2-.3 3.5-2.7c9-6.9 8.3-21.2-1.4-26.5-3.1-1.7-7.6-1.8-61.8-2-32.2-.1-60 .2-61.9.7z"></path>
  </symbol>
  <symbol xmlns="http://www.w3.org/2000/svg" viewBox="0 0 24 24" id="close_black">
    <path d="M0 0h24v24H0z" fill="none"></path>
    <path d="M19 6.41L17.59 5 12 10.59 6.41 5 5 6.41 10.59 12 5 17.59 6.41 19 12 13.41 17.59 19 19 17.59 13.41 12z"></path>
  </symbol>
  <symbol xmlns="http://www.w3.org/2000/svg" fill="currentColor" viewBox="0 0 16 16" id="facebook">
    <path d="M16 8.049c0-4.446-3.582-8.05-8-8.05C3.58 0-.002 3.603-.002 8.05c0 4.017 2.926 7.347 6.75 7.951v-5.625h-2.03V8.05H6.75V6.275c0-2.017 1.195-3.131 3.022-3.131.876 0 1.791.157 1.791.157v1.98h-1.009c-.993 0-1.303.621-1.303 1.258v1.51h2.218l-.354 2.326H9.25V16c3.824-.604 6.75-3.934 6.75-7.951z"></path>
  </symbol>
  <symbol version="1.0" xmlns="http://www.w3.org/2000/svg" viewBox="0 0 512 512" id="history-book">
    <path d="M100.5.7c-21.9 5-39 20.4-46.3 41.7l-2.7 8.1V255c0 223.9-.4 208.9 6.1 222.5 5.7 12.1 16 22.6 27.9 28.4 13.1 6.5.6 6.1 191.3 6.1h173.5l3.4-2.1c1.8-1.1 4.1-3.5 5.1-5.2 1.6-3 1.7-17 1.7-228.7V50.5l-2.7-8.1C451.5 24 437.7 9.7 419.3 2.7L413.5.5 258 .4C172.5.3 101.6.4 100.5.7zm308.7 31.6c6.7 2.6 14.1 9.7 17.5 16.5l2.8 5.7.3 157.2.2 157.2-160.2.3c-179.3.4-163.9-.3-180.1 7.6l-7.7 3.8.2-163 .3-163.1 2.2-4.7c4.5-9.8 13.7-17 24-18.8 2.7-.4 70.3-.7 150.3-.6 138.8.1 145.7.2 150.2 1.9zM430 441v41l-161.2-.2c-182.3-.3-165.9.5-175.7-8.4-7.3-6.5-10.1-13-10.8-24.6-.6-10.7.6-18.8 4.1-26.4 4.8-10.4 15-18.5 26.6-21 4.1-.9 44.1-1.3 161.3-1.3L430 400v41z"></path>
    <path d="M186 114.4c-42.6 18.4-66.5 29.3-68.2 31-3.6 3.5-5.2 9.4-3.9 14.3 2.6 9.7 7.8 12.2 24.4 12.3H150v107h-3.7c-5.4.1-11.9 3.3-14.3 7.2-4.3 7.1-1.8 17.5 5.2 21.8 3.2 2 5.3 2 118.6 2 125 0 117.8.3 123.2-5.4 3.4-3.8 4-13.6 1-18.4-2.4-3.9-8.9-7.1-14.2-7.2H362V172h11.8c10.2 0 12.4-.3 16.2-2.3 8.1-4.1 11-14.2 6.1-22-2.7-4.4 2.5-1.9-74.2-35.1-50.2-21.7-62.4-26.6-66-26.6-3.5.1-17.6 5.8-69.9 28.4zm96.1 15.1l26.4 11.5h-51.9c-28.6 0-51.7-.2-51.4-.5.2-.3 11.7-5.4 25.4-11.4s24.9-11 25-11c0-.1 11.9 5.1 26.5 11.4zm-72.1 96V279h-29V172h29v53.5zm61 0V279h-30V172h30v53.5zm60 0V279h-29V172h29v53.5z"></path>
  </symbol>
  <symbol version="1.0" xmlns="http://www.w3.org/2000/svg" viewBox="0 0 512 512" id="museum">
    <path d="M135.5 68.6c-64.3 33.3-117.6 61.2-118.3 62.1-.9 1.3-1.2 9.6-1.2 33.5 0 30.5.1 31.9 2 33.8 1.1 1.1 3 2 4.3 2 2.1 0 2.2.3 1.9 6.6-.5 8.6 1.6 14 7.3 19.3 5.2 4.8 10.1 6.4 18.3 5.9l6.2-.3V416h-6c-9 0-10 1.4-10 14v10H30c-13.6 0-14 .4-14 14v10h-6c-9.7 0-10 .6-10 20 0 14.7.2 16.2 2 18 2 2 3.3 2 254 2s252 0 254-2c1.8-1.8 2-3.3 2-18 0-19.4-.3-20-10-20h-6v-10c0-13.6-.4-14-14-14h-10v-10c0-12.6-1-14-10-14h-6V231.5l6.6.3c8.6.5 14-1.6 19.3-7.3 4.8-5.2 6.4-10.1 5.9-18.3-.3-5.9-.2-6.2 1.9-6.2 1.3 0 3.2-.9 4.3-2 1.9-1.9 2-3.3 2-34 0-29.3-.1-32.1-1.8-33.8-.9-.9-54.2-28.8-118.3-62C287.6 22.6 258.5 8 255.9 8c-2.5 0-33.4 15.6-120.4 60.6zM355.3 77l97.5 50.5-98.4.3c-54.1.1-142.7.1-196.8 0l-98.4-.3 97.6-50.7c53.8-27.8 98.4-50.5 99.3-50.5.9.1 45.5 22.9 99.2 50.7zM479 152v8H33v-16h446v8zm0 28v4H33v-8h446v4zM104.2 308l-.2 108H72l-.2-108-.3-108h33l-.3 108zm112 0l-.2 108h-32l-.2-108-.3-108h33l-.3 108zm112 0l-.2 108h-32l-.2-108-.3-108h33l-.3 108zm112 0l-.2 108h-32l-.2-108-.3-108h33l-.3 108zM53 203c4.3 4.3 1.1 12-5 12-3.8 0-7-3.2-7-7s3.2-7 7-7c1.7 0 3.9.9 5 2zm80 0c1.1 1.1 2 3.3 2 5 0 1.7-.9 3.9-2 5-4.3 4.3-12 1.1-12-5 0-3.8 3.2-7 7-7 1.7 0 3.9.9 5 2zm32 0c1.1 1.1 2 3.3 2 5 0 1.7-.9 3.9-2 5s-3.3 2-5 2c-1.7 0-3.9-.9-5-2s-2-3.3-2-5c0-1.7.9-3.9 2-5s3.3-2 5-2c1.7 0 3.9.9 5 2zm80 0c1.1 1.1 2 3.3 2 5 0 1.7-.9 3.9-2 5s-3.3 2-5 2c-1.7 0-3.9-.9-5-2s-2-3.3-2-5c0-1.7.9-3.9 2-5s3.3-2 5-2c1.7 0 3.9.9 5 2zm32 0c1.1 1.1 2 3.3 2 5 0 1.7-.9 3.9-2 5s-3.3 2-5 2c-1.7 0-3.9-.9-5-2s-2-3.3-2-5c0-1.7.9-3.9 2-5s3.3-2 5-2c1.7 0 3.9.9 5 2zm80 0c1.1 1.1 2 3.3 2 5 0 1.7-.9 3.9-2 5s-3.3 2-5 2c-1.7 0-3.9-.9-5-2s-2-3.3-2-5c0-1.7.9-3.9 2-5s3.3-2 5-2c1.7 0 3.9.9 5 2zm32 0c1.1 1.1 2 3.3 2 5 0 1.7-.9 3.9-2 5s-3.3 2-5 2c-1.7 0-3.9-.9-5-2s-2-3.3-2-5c0-1.7.9-3.9 2-5s3.3-2 5-2c1.7 0 3.9.9 5 2zm80 0c1.1 1.1 2 3.3 2 5 0 1.7-.9 3.9-2 5s-3.3 2-5 2c-1.7 0-3.9-.9-5-2s-2-3.3-2-5c0-1.7.9-3.9 2-5s3.3-2 5-2c1.7 0 3.9.9 5 2zm-319.7 26.9c3.9 1.8 6.2 2.2 11.8 1.9l6.9-.3V416h-6c-9 0-10 1.4-10 14v10h-16v-10c0-12.6-1-14-10-14h-6V231.5l7.2.3c6.1.2 8-.1 11.8-2.1 2.5-1.3 4.7-2.3 5-2.3.3.1 2.7 1.2 5.3 2.5zm112 0c3.9 1.8 6.2 2.2 11.8 1.9l6.9-.3V416h-6c-9 0-10 1.4-10 14v10h-16v-10c0-12.6-1-14-10-14h-6V231.5l7.2.3c6.1.2 8-.1 11.8-2.1 2.5-1.3 4.7-2.3 5-2.3.3.1 2.7 1.2 5.3 2.5zm112 0c3.9 1.8 6.2 2.2 11.8 1.9l6.9-.3V416h-6c-9 0-10 1.4-10 14v10h-16v-10c0-12.6-1-14-10-14h-6V231.5l7.2.3c6.1.2 8-.1 11.8-2.1 2.5-1.3 4.7-2.3 5-2.3.3.1 2.7 1.2 5.3 2.5zM119 436v4H57v-8h62v4zm112 0v4h-62v-8h62v4zm112 0v4h-62v-8h62v4zm112 0v4h-62v-8h62v4zm24 24v4H33v-8h446v4zm16 24v4H17v-8h478v4z"></path>
    <path d="M226.8 57.1c-3 1.7-3.8 7.9-3.8 30.9 0 23.4.8 29.3 4 31 2.7 1.4 8.3 1.2 10.6-.4 1.7-1.3 2-3.1 2.4-15.2l.5-13.8 4.4 6c5.6 7.6 6.7 8.4 11.1 8.4 4.4 0 5.5-.8 11.1-8.4l4.4-6 .5 13.8c.4 12.1.7 13.9 2.4 15.2 2.3 1.6 7.9 1.8 10.6.4 3.2-1.7 4-7.6 4-31s-.8-29.3-4-31c-2.2-1.2-8-1.3-9.7-.2-.7.4-5.1 5.9-9.8 12.2-4.8 6.3-9 11.5-9.5 11.5s-4.7-5.2-9.5-11.5c-4.7-6.3-9.1-11.8-9.8-12.2-1.7-1.1-7.9-.9-9.9.3zM82 218c-2 2-2 3.3-2 90s0 88 2 90c2.7 2.7 9.3 2.7 12 0 2-2 2-3.3 2-90s0-88-2-90c-1.3-1.3-3.3-2-6-2s-4.7.7-6 2zm112 0c-2 2-2 3.3-2 90s0 88 2 90c2.7 2.7 9.3 2.7 12 0 2-2 2-3.3 2-90s0-88-2-90c-1.3-1.3-3.3-2-6-2s-4.7.7-6 2zm112 0c-2 2-2 3.3-2 90s0 88 2 90c2.7 2.7 9.3 2.7 12 0 2-2 2-3.3 2-90s0-88-2-90c-1.3-1.3-3.3-2-6-2s-4.7.7-6 2zm112 0c-2 2-2 3.3-2 90s0 88 2 90c2.7 2.7 9.3 2.7 12 0 2-2 2-3.3 2-90s0-88-2-90c-1.3-1.3-3.3-2-6-2s-4.7.7-6 2z"></path>
  </symbol>
  <symbol xmlns="http://www.w3.org/2000/svg" viewBox="0 0 508.044 508.044" id="quotes">
    <path d="M.108 352.536c0 66.794 54.144 120.938 120.937 120.938 66.794 0 120.938-54.144 120.938-120.938s-54.144-120.937-120.938-120.937c-13.727 0-26.867 2.393-39.168 6.61C109.093 82.118 230.814-18.543 117.979 64.303-7.138 156.17-.026 348.84.114 352.371c0 .055-.006.104-.006.165zm266.061 0c0 66.794 54.144 120.938 120.938 120.938s120.938-54.144 120.938-120.938S453.9 231.599 387.106 231.599c-13.728 0-26.867 2.393-39.168 6.61C375.154 82.118 496.875-18.543 384.04 64.303 258.923 156.17 266.034 348.84 266.175 352.371c0 .055-.006.104-.006.165z"></path>
  </symbol>
  <symbol version="1.0" xmlns="http://www.w3.org/2000/svg" viewBox="0 0 512 512" id="restaurant">
    <path d="M0 255.9V461h52V336.5l8.5-8.5 8.5-8.5-.2-109.5-.3-109.5-2.7-8c-5.9-17.2-16.6-30.3-30.3-37.1-7.8-3.9-8-3.9-21.7-4.2L0 50.8v205.1zM27 71.6c10.3 4.8 19.7 17.7 22.5 31.1 1.2 5.7 1.5 23.9 1.5 107.8v101l-8.5 8.5-8.5 8.5V443H18V256c0-177.4.1-187 1.8-187 .9 0 4.2 1.2 7.2 2.6zm402.9-19.3c-3.9 3-3.9 3.5-3.9 79.1V205h17v256h52V205h17V55.1l-2.6-2c-3.8-3-9.4-2.8-12.5.5l-2.4 2.6-.3 39.9-.3 39.9H478V55.9l-2.5-2.4c-3.4-3.5-9.3-3.4-12.6.1l-2.4 2.6-.3 39.9-.3 39.9H444V55.9l-2.5-2.4c-2.7-2.8-8.8-3.4-11.6-1.2zM494 170.5V187h-17v256h-16V187h-17v-33h50v16.5zM235 86c-19.8 2.8-37.4 8.1-54.5 16.4-84.7 41.5-119.7 144.1-78.1 229.1C140 408.2 228.8 445.4 310 418.4c51.5-17.1 91.3-56.9 108.4-108.4 6.6-20.1 9.1-38.2 8.3-60.5-2.9-79.7-59.5-145.8-138.3-161.5-12.3-2.5-41.9-3.6-53.4-2zm51.2 20c60.9 12.9 106.7 58.9 120 120.4 3.2 14.6 3.1 44.6 0 59.1-3.3 14.7-6.7 24.6-13.3 38-21.1 43-61.3 73.5-109.4 83.2-13.6 2.7-43.4 2.4-57.1-.5-54.3-11.7-97-49-114.8-100.1-6.5-18.6-8-28-8-50.1 0-16.3.4-21.2 2.2-29.6 9-41.7 32.5-76.2 67.2-98.7 19.5-12.6 40.8-20.4 64-23.7 10.7-1.5 38.1-.4 49.2 2z"></path>
    <path d="M236.8 154.5C188 163.8 153 206.1 153 256c0 57.4 45.6 103 103 103 51.4 0 94.8-37.4 102.1-87.9 1.6-11.1.6-30.3-2-40.3-9.6-36.9-37.9-65.1-74.9-75-10.2-2.7-33.4-3.4-44.4-1.3zm39.2 18.8c9.1 2.5 16.3 5.5 22.9 9.5 20.6 12.4 33.3 29.5 39.9 53.7 2.3 8.5 2.3 30.7-.1 39.4-8.7 32-30.8 54.1-62.8 62.8-8.7 2.4-30.9 2.4-39.4.1-24.2-6.7-41.2-19.3-53.7-40-6.9-11.3-10.6-23.7-11.5-38-2.6-42.8 27-80.2 70.2-88.7 6.9-1.4 27.8-.6 34.5 1.2z"></path>
  </symbol>
  <symbol xmlns="http://www.w3.org/2000/svg" fill="currentColor" viewBox="0 0 16 16" id="star">
    <path d="M2.866 14.85c-.078.444.36.791.746.593l4.39-2.256 4.389 2.256c.386.198.824-.149.746-.592l-.83-4.73 3.523-3.356c.329-.314.158-.888-.283-.95l-4.898-.696L8.465.792a.513.513 0 00-.927 0L5.354 5.12l-4.898.696c-.441.062-.612.636-.283.95l3.523 3.356-.83 4.73zm4.905-2.767l-3.686 1.894.694-3.957a.565.565 0 00-.163-.505L1.71 6.745l4.052-.576a.525.525 0 00.393-.288l1.847-3.658 1.846 3.658a.525.525 0 00.393.288l4.052.575-2.906 2.77a.564.564 0 00-.163.506l.694 3.957-3.686-1.894a.503.503 0 00-.461 0z"></path>
  </symbol>
  <symbol aria-hidden="true" data-prefix="fas" data-icon="rupee-sign" xmlns="http://www.w3.org/2000/svg" viewBox="0 0 320 512" id="rupee-sign">
    <path fill="currentColor" d="M308 96c6.627 0 12-5.373 12-12V44c0-6.627-5.373-12-12-12H12C5.373 32 0 37.373 0 44v44.748c0 6.627 5.373 12 12 12h85.28c27.308 0 48.261 9.958 60.97 27.252H12c-6.627 0-12 5.373-12 12v40c0 6.627 5.373 12 12 12h158.757c-6.217 36.086-32.961 58.632-74.757 58.632H12c-6.627 0-12 5.373-12 12v53.012c0 3.349 1.4 6.546 3.861 8.818l165.052 152.356a12.001 12.001 0 008.139 3.182h82.562c10.924 0 16.166-13.408 8.139-20.818L116.871 319.906c76.499-2.34 131.144-53.395 138.318-127.906H308c6.627 0 12-5.373 12-12v-40c0-6.627-5.373-12-12-12h-58.69c-3.486-11.541-8.28-22.246-14.252-32H308z"></path>
  </symbol>
  <symbol version="1.0" xmlns="http://www.w3.org/2000/svg" viewBox="0 0 512 512" id="running">
    <path d="M434.8 1.1c-26.8 3-49.8 22.4-58 48.9-1.9 6.2-2.3 9.6-2.2 20 .1 10.7.5 13.7 2.7 20.5 5 15.1 14.5 27.9 27.1 36.3 23.8 15.9 54 15.9 77.7.1 3.1-2.1 8.5-6.9 12.1-10.8 12.1-13.1 17.8-28 17.8-46.5 0-12.6-1.9-20.7-7.2-31.6-5.8-11.7-17.7-23.7-29.5-29.7-12-6.1-27-8.8-40.5-7.2zM457 20.6c16.8 5 31 19.7 35.6 36.9 1.8 6.7 1.7 17.7-.1 25-5 18.9-22.8 34.7-42.3 37.5-28 3.9-54.1-16.7-57.8-45.6-1.5-12.1 4.8-30.1 13.8-39.3 5.8-6 14.9-11.7 22.2-14.1 7.7-2.4 21.2-2.6 28.6-.4zm-215.6 4.9c-10.2 3.2-12.4 5.2-68 60.9-64 63.9-60.9 60-60.9 77.6 0 9.3.3 11.2 2.7 16.2 9 19.3 31.7 27.4 51.5 18.3 5-2.3 11.4-8.2 46.5-43.3l40.8-40.6 27.7 27.5c30.2 29.9 32.9 32 45.2 34 30.5 4.9 53.5-26.3 40.2-54.7-3-6.4-6.2-9.9-43.4-47-40.5-40.5-46.1-45.4-56.1-48.7-5.9-2-20.1-2.1-26.2-.2zm23.1 18.9c3.9 1.9 13.9 11.3 45.2 42.7 27.4 27.5 40.7 41.6 41.8 44.1 6 14.7-7.3 29.9-23.2 26.6-4.6-1-6.4-2.6-36.3-32.3-17.3-17.3-32.8-31.9-34.3-32.4-1.6-.6-4-.8-5.5-.5-1.8.4-18 15.9-47.2 44.9-48.1 47.8-47.3 47.2-57.2 46.3-14.4-1.4-22.7-18.7-14.5-30.5 1.4-2.1 25.9-27.1 54.4-55.5 39.2-39.2 52.9-52.2 56.3-53.7 6.3-2.9 14.1-2.7 20.5.3zm115 128.5c-1.1.5-14.3 13.2-29.2 28.3L323 228.6V251c0 20.5.2 22.9 2.1 27 2.7 6 6.4 9.8 12.4 12.6l5 2.4h71.2c70.6 0 71.3 0 77-2.2 7.9-2.9 16.2-11.2 19.1-19.1 2.6-7 2.9-18.2.7-24.8-3.4-9.8-13-18.8-23.1-21.7-2.9-.9-17.5-1.2-49.8-1.2H392v-22.9c0-22.4-.1-23.1-2.2-25.5-2.5-2.9-7.2-4-10.3-2.7zm-2.7 66.3l2.3 2.3 51.7.5c57.3.6 55.4.3 60.4 7.2 1.8 2.6 2.3 4.6 2.3 9.5 0 6.7-1.6 9.8-6.9 13.7-2.7 2.1-3.8 2.1-71.7 2.4l-69 .2-2.4-2.4c-2.5-2.5-2.5-2.8-2.5-19.3v-16.8l16.3-16.3 16.2-16.2.5 16.5c.5 15.4.6 16.6 2.8 18.7zm-149-3.2c-11.1 2-22.6 11-27.6 21.8-2.4 5-2.7 6.9-2.7 16.2 0 16.9-.6 16 41.3 58.2 19.6 19.7 35.4 35.9 35.1 36.1-.2.2-18.6 10-40.8 21.8-44.8 23.8-48.8 26.5-54.2 37.4-10 20.3.4 46.3 21.8 54.6 7.7 2.9 19.7 3 26.8.2 5.5-2.1 106.2-56.1 121.4-65 11.5-6.8 17.3-12.5 21.2-20.7 4.3-9.1 5.5-16.9 4.2-25.7-2.3-14.7-1.5-13.7-63-75-51.6-51.5-56.2-55.8-61.3-57.7-6.7-2.4-15.9-3.3-22.2-2.2zm15.7 19.9c2.7 1.3 21.2 19.1 57.1 55.2 57.5 57.7 55.9 55.8 55.7 66.6-.2 8-4.1 15.3-10.8 19.9-1.6 1.2-30.2 16.9-63.5 34.9-55.7 30.2-61 32.9-66.2 33.3-10 .8-18-5.1-21.6-15.7-1.5-4.2-1.5-6.5-.1-11.5 2.1-7.7 5.7-10.1 53.9-35.7 25.1-13.2 46.6-25 47.9-26 1.4-1.2 2.5-3.4 2.8-5.9l.6-4.1-40-40.2c-22.1-22.1-40.8-41.6-41.6-43.2-3.9-7.7-2.9-15.9 2.6-22.2 6.1-6.9 15.3-9.1 23.2-5.4z"></path>
    <path d="M166.5 293.5c-1.6.7-38.4 36.8-81.7 80.1C-5.6 464.2.5 456.9.5 475c0 9.3.3 11.2 2.7 16.2 3.4 7.3 11.3 15.2 18.4 18.5 5.1 2.3 6.4 2.5 17.7 2.2 11.3-.4 12.6-.6 17.2-3.3 6.1-3.5 161-157.6 163-162.1.7-1.7 1.1-4.2.8-5.6-.6-3.4-44.8-47.4-48.3-48.2-1.4-.3-3.8 0-5.5.8zm18 35.5l14 14-74 74c-52.2 52.2-75.3 74.7-78.3 76.1-15.9 7.8-33.5-9.3-26.7-25.9 1.1-2.6 23.9-26 75.8-78 40.8-40.8 74.4-74.2 74.7-74.2.3 0 6.8 6.3 14.5 14z"></path>
  </symbol>
  <symbol xmlns="http://www.w3.org/2000/svg" viewBox="0 0 511.984 511.984" id="taj-mahal">
    <path d="M21.343 319.99c-5.89 0-10.671-4.766-10.671-10.656v-63.998c0-5.891 4.781-10.671 10.671-10.671 5.891 0 10.656 4.78 10.656 10.671v63.998a10.65 10.65 0 01-10.656 10.656zm469.313 0c-5.904 0-10.67-4.766-10.67-10.656v-63.998c0-5.891 4.766-10.671 10.67-10.671 5.875 0 10.656 4.78 10.656 10.671v63.998c0 5.89-4.781 10.656-10.656 10.656z" fill="#424953"></path>
    <path d="M490.656 298.662h-42.67c-5.891 0-10.672 4.781-10.672 10.672v191.994c0 5.891 4.781 10.656 10.672 10.656h42.67c5.875 0 10.656-4.766 10.656-10.656V309.334c0-5.891-4.781-10.672-10.656-10.672zm-426.658 0H21.343c-5.89 0-10.671 4.781-10.671 10.672v191.994c0 5.891 4.781 10.656 10.671 10.656h42.655c5.89 0 10.671-4.766 10.671-10.656V309.334c0-5.891-4.781-10.672-10.671-10.672z" fill="#f6bb42"></path>
    <path d="M127.996 405.332H21.343c-5.89 0-10.671-4.781-10.671-10.672s4.781-10.672 10.671-10.672h106.653c5.891 0 10.671 4.781 10.671 10.672s-4.78 10.672-10.671 10.672zm362.66 0H383.988c-5.891 0-10.672-4.781-10.672-10.672s4.781-10.672 10.672-10.672h106.668c5.875 0 10.656 4.781 10.656 10.672s-4.781 10.672-10.656 10.672z" fill="#ed5564"></path>
    <path d="M255.992 42.67c-5.89 0-10.671-4.766-10.671-10.671V10.671C245.321 4.78 250.102 0 255.992 0c5.891 0 10.672 4.78 10.672 10.671v21.328c0 5.905-4.781 10.671-10.672 10.671zm159.996 170.667c-5.891 0-10.672-4.781-10.672-10.671v-10.672c0-5.891 4.781-10.656 10.672-10.656 5.889 0 10.67 4.766 10.67 10.656v10.672c0 5.889-4.781 10.671-10.67 10.671zm-319.991 0c-5.891 0-10.656-4.781-10.656-10.671v-10.672c0-5.891 4.766-10.656 10.656-10.656s10.671 4.766 10.671 10.656v10.672c0 5.889-4.781 10.671-10.671 10.671z" fill="#424953"></path>
    <path d="M415.988 191.994c-23.516 0-42.672 19.14-42.672 42.671 0 5.89 4.781 10.671 10.672 10.671h63.998c5.891 0 10.672-4.781 10.672-10.671 0-23.531-19.156-42.671-42.67-42.671zm-319.991 0c-23.515 0-42.655 19.14-42.655 42.671 0 5.89 4.766 10.671 10.656 10.671h63.998c5.891 0 10.671-4.781 10.671-10.671 0-23.531-19.155-42.671-42.67-42.671zm267.788-94.028c-10.436-15.156-24.842-29.483-42.857-42.593-30.203-21.952-60.045-32.937-61.295-33.39a10.608 10.608 0 00-7.281 0c-1.25.453-31.093 11.438-61.295 33.39-18.015 13.109-32.421 27.437-42.858 42.593-13.406 19.499-20.203 40.373-20.203 62.029 0 33.812 13.5 68.467 37.046 95.075 11.843 13.375 25.468 23.968 40.53 31.468 16.125 8.047 33.093 12.124 50.42 12.124 17.328 0 34.295-4.077 50.42-12.124 15.062-7.5 28.688-18.093 40.531-31.468 23.545-26.608 37.045-61.264 37.045-95.075 0-21.656-6.797-42.53-20.203-62.029z" fill="#f6bb42"></path>
    <path d="M383.988 255.992H127.996c-5.891 0-10.671 4.781-10.671 10.672v234.664c0 5.891 4.781 10.656 10.671 10.656h255.992c5.891 0 10.672-4.766 10.672-10.656V266.664c0-5.891-4.781-10.672-10.672-10.672z" fill="#ed5564"></path>
    <path d="M373.035 213.337H138.949a150.91 150.91 0 0010.938 21.328h212.211a151.063 151.063 0 0010.937-21.328zM255.992 319.99c-41.17 0-74.669 33.499-74.669 74.67v117.324h149.339V394.66c0-41.171-33.5-74.67-74.67-74.67z" fill="#ffce54"></path>
    <path d="M277.32 426.659h-42.655a10.665 10.665 0 00-10.672 10.671v74.654h63.997V437.33c0-5.891-4.764-10.671-10.67-10.671z" fill="#424953"></path>
    <path d="M373.316 234.665v266.663c0 5.891 4.781 10.656 10.672 10.656h63.998c5.891 0 10.672-4.766 10.672-10.656V234.665h-85.342zm-319.974 0v266.663a10.65 10.65 0 0010.656 10.656h63.998c5.891 0 10.671-4.766 10.671-10.656V234.665H53.342z" fill="#ffce54"></path>
    <path d="M53.342 298.662h85.33v85.33h-85.33zm319.97 0h85.34v85.33h-85.34z" fill="#5d9cec"></path>
  </symbol>
  <symbol xmlns="http://www.w3.org/2000/svg" fill="currentColor" viewBox="0 0 16 16" id="star-fill">
    <path d="M3.612 15.443c-.386.198-.824-.149-.746-.592l.83-4.73L.173 6.765c-.329-.314-.158-.888.283-.95l4.898-.696L7.538.792c.197-.39.73-.39.927 0l2.184 4.327 4.898.696c.441.062.612.636.283.95l-3.523 3.356.83 4.73c.078.443-.36.79-.746.592L8 13.187l-4.389 2.256z"></path>
  </symbol>
  <symbol xmlns="http://www.w3.org/2000/svg" fill="currentColor" viewBox="0 0 16 16" id="star-half">
    <path d="M5.354 5.119L7.538.792A.516.516 0 018 .5c.183 0 .366.097.465.292l2.184 4.327 4.898.696A.537.537 0 0116 6.32a.55.55 0 01-.17.445l-3.523 3.356.83 4.73c.078.443-.36.79-.746.592L8 13.187l-4.389 2.256a.519.519 0 01-.146.05c-.341.06-.668-.254-.6-.642l.83-4.73L.173 6.765a.55.55 0 01-.171-.403.59.59 0 01.084-.302.513.513 0 01.37-.245l4.898-.696zM8 12.027c.08 0 .16.018.232.056l3.686 1.894-.694-3.957a.564.564 0 01.163-.505l2.906-2.77-4.052-.576a.525.525 0 01-.393-.288L8.002 2.223 8 2.226v9.8z"></path>
  </symbol>
  <symbol version="1.0" xmlns="http://www.w3.org/2000/svg" viewBox="0 0 512 512" id="search">
    <path d="M185.8 1.6c-34.1 5-67.8 19.2-96.3 40.8-10.4 7.8-30.4 27.8-38.4 38.4-12.4 16.4-25.6 40.9-31.5 58.3-31.1 92.9 4.7 192.6 87.7 244.2 66.2 41 153.5 40.5 218.8-1.4l7.6-4.9 12.5 12.8c6.9 7 35.2 36.4 63 65.3 57.4 59.7 54.8 57.5 68.8 56.7 8.5-.5 12.3-2.1 17.6-7.5 5.2-5.2 7.7-11.4 7.7-19.3 0-9.8-2.4-14.2-15.1-27.3C446.2 414.3 375 340 375 339.5c0-.3 2.2-3.3 4.9-6.8 16.4-20.9 29.1-47.1 36.2-74.6 15.9-61.4 2.8-125.5-36.3-177.4-7.8-10.4-27.9-30.5-38.6-38.6-28.8-21.8-61.8-35.5-97.4-40.6-13-1.9-44.8-1.8-58 .1zM236 56.1c30.8 3.8 60.7 18.4 84.4 40.9 47.6 45.5 60.6 114.6 32.7 174.5-12.8 27.3-35.6 51.9-62.6 67.4-38.7 22.2-85.7 25.9-128.2 10.2-62.6-23.1-104-87.9-98.3-154 1.3-14.6 3.3-24.1 7.7-37.1C93.1 94.6 154.7 52 221 54.8c3.6.1 10.3.7 15 1.3z"></path>
  </symbol>
  <symbol version="1.0" xmlns="http://www.w3.org/2000/svg" viewBox="0 0 512 512" id="traveler">
    <path d="M212.5 1.9c-13.2 3.8-27.3 14.1-34.7 25.3-1.8 2.8-9.6 18.4-17.4 34.7l-14 29.6-14 .5c-15.6.6-17.7 1.3-23.6 7.8-4.8 5.3-6.2 9.9-5.6 18.4.4 5.6 1.1 7.8 3.5 11.1 4.1 6 9.8 9.6 16.1 10.4l5.2.6v17.4c0 18.5.5 20.8 5.4 26.1 4.1 4.6 8.8 6.2 18.3 6.2h8.8l1.3 6.6c.7 3.7 2.8 10.7 4.6 15.5 1.8 4.9 3.1 8.9 2.9 8.9-.3 0-2.4-2.1-4.8-4.8l-4.3-4.7-13.3-.3c-12.1-.2-13.7-.1-16.7 1.8-1.8 1.1-4.1 3.3-5 4.9l-1.7 3-18.5.3c-17.8.3-18.7.4-23.5 3-6.5 3.5-11.8 9-14.9 15.8l-2.6 5.5v32.7c0 30 .2 33.2 1.9 37.8 3.8 9.9 11.1 16.5 21.9 19.6 2.8.9 5.2 1.7 5.2 1.9 0 .2-1 4.3-2.2 9.2-2.3 8.7-2.3 9.3-2.3 84.9 0 73.5.1 76.3 1.9 78.3l1.9 2.1h327.4l1.9-2.1c1.8-2 1.9-4.4 1.9-53.5 0-51 0-51.4-2.1-53.5-1.4-1.4-3.4-2.1-5.9-2.1-7 0-6.9-.5-7.5 35.1l-.5 31.9-20.3-16.9c-19.6-16.5-23.6-20.7-26-27.8-.9-2.4-1.2-20.2-1.2-63.2 0-33 .3-59.9.6-59.9s4.3 1.9 8.7 4.2c9.6 4.9 23.1 17.7 28.5 27 6.5 11.1 10.2 26.4 10.2 42.4 0 4.9.4 6.5 2 7.9 2.9 2.6 8.5 2.5 11.3-.3 2-2.1 2.2-3.1 2.1-14-.1-8.1-.8-14.4-2.3-20.6-2.2-9.3-2-10.5 2-10.6 3.6 0 14-6.3 17.5-10.5 7.1-8.7 7.4-10.5 7.4-47.3v-32.7l-2.8-6c-3.1-6.5-8.6-12.1-15.4-15.7-4-2.1-5.8-2.3-22.9-2.6l-18.6-.4-1.7-3c-3.4-5.6-6.7-6.8-19.9-6.8-13.7 0-17.4 1.2-20.8 6.6-3.3 5.4-4.1 4-1.3-2.3 2.7-6.3 6.4-19.4 6.4-23 0-2.2.3-2.3 9.3-2.3 10.6 0 14.8-1.8 20.1-8.3l3.1-3.9.3-18.9.3-18.9h2.7c8.6 0 18.6-7.5 21-15.6 2.9-9.9.7-19.8-5.9-26.1-5.4-5.1-9.5-6.3-21.7-6.3h-10.9L360 72.2c-15.7-33.4-20.7-43.1-25-48.5-8.4-10.6-20.8-18.8-33.5-22.2-9.2-2.4-80.5-2.1-89 .4zm79 14.1c12.4 1.8 25.7 10.2 33.1 20.9C326.1 39 351 90.7 351 91.6c0 .2-42 .4-93.4.4h-93.5l4.6-9.8c18.6-39.8 22-46.1 28.5-52.6 7.6-7.6 16.7-12.3 25.8-13.5 9.2-1.2 60.2-1.2 68.5-.1zm98.9 93.9c3.5 3.3 3.5 8.3.1 11.6l-2.4 2.5H269.8l-3 3c-2.5 2.6-2.9 3.6-2.4 6.3 1.3 6.7 1.1 6.7 38.2 6.7H336v23.8c0 27.8-1 33.8-8.4 48.7-10.1 20.3-27.1 34.6-49.6 41.7-6.4 2-9.6 2.3-22 2.3s-15.6-.3-22-2.3c-26.8-8.4-46.3-27.7-55.1-54.7-2.1-6.4-2.3-9.3-2.7-33.3l-.4-26.2h33.5c37.2 0 37 0 38.3-6.7.5-2.7.1-3.7-2.4-6.3l-3-3H123.9l-2.4-2.5c-4.6-4.5-2.4-12.2 4-13.8 1.1-.3 60.6-.4 132.2-.3l130.1.1 2.6 2.4zM160 157v17h-6.8c-4 0-7.3-.5-8-1.2-.8-.8-1.2-5.6-1.2-15.2 0-17.1.3-17.6 9.7-17.6h6.3v17zm206.2-15.3c1.6 1.4 1.8 3.3 1.8 15.8 0 9.6-.4 14.5-1.2 15.3-.7.7-4 1.2-8 1.2H352v-34h6.2c4.3 0 6.7.5 8 1.7zM152 254.9v27.8l-5.9 2.2c-3.2 1.1-6.1 2.1-6.5 2.1-.3 0-.6-13.5-.6-30v-30h13v27.9zm221 2.1c0 16.5-.3 30-.6 30-.4 0-3.3-1-6.5-2.1l-5.9-2.2V227h13v30zm-250 9.9v29.9l-7.5 7.2c-4.1 4-8.9 9.5-10.7 12.2l-3.3 4.9-5.2-.4c-6.4-.4-12.3-4.1-14.6-9-1.5-3-1.7-7.6-1.7-33.5 0-29.5 0-30 2.3-33.3 1.2-1.8 3.8-4.4 5.6-5.6 3.2-2.2 4.4-2.3 19.2-2.3H123v29.9zm61.4-25.3c4.6 5.5 16.7 15.2 23.6 19l5 2.7V280h-15v-5.3c0-10.8-5.3-14.9-20.2-15.5l-9.8-.4V237h6.3c6.2 0 6.3 0 10.1 4.6zm159.6 6.3v10.9l-9.7.4c-15 .6-20.3 4.7-20.3 15.5v5.3h-15v-16.5l5-2.8c7.1-4 19.1-13.7 23.6-19.1 3.8-4.6 3.9-4.6 10.1-4.6h6.3v10.9zm80.1-8.6c1.8 1.2 4.4 3.8 5.6 5.6 2.3 3.3 2.3 3.8 2.3 33.3 0 25.9-.2 30.5-1.7 33.5-2.3 4.9-8.2 8.6-14.6 9l-5.2.4-3.3-4.9c-1.8-2.7-6.6-8.2-10.7-12.2l-7.5-7.2V237h15.9c14.8 0 16 .1 19.2 2.3zm-186.6 32.2c9 1.9 28 1.9 37 0 3.8-.8 7.4-1.5 7.9-1.5.4 0 .7 5.7.4 12.7-.3 11.9-.6 13.2-3.3 18.2-4.8 8.8-13.4 13.9-23.5 13.9s-18.7-5.1-23.5-13.9c-2.7-5-3-6.3-3.3-18.2-.3-7 0-12.7.4-12.7.5 0 4.1.7 7.9 1.5zm-55.7 79.2l-.3 75.8-2.3 6.5c-5.4 15-9.8 19.9-41.2 45.9L117.5 496h-13.6l.3-3.6c.3-3.3 2-4.9 25.8-24.7 26.2-21.8 31.4-27.2 35.3-36.7l2.2-5.5.3-75.3.2-75.2h14l-.2 75.7zm162.4-.5l.3 75.3 2.3 5.8c3.8 9.3 9.1 14.8 35.8 36.9 24 19.9 25.4 21.3 25.4 24.4v3.4h-13.5L371 476.4c-24.8-20.6-30.1-26-34.9-35.9-6.2-12.6-6.1-10.8-6.1-91.7V275h14l.2 75.2zm-128.9-48.6c3.9 12.5 14.9 23.7 26.9 27.2l5.8 1.7v32.6c0 31.5.1 32.7 2.1 35.3 2.9 3.7 8.9 3.7 11.8 0 2-2.6 2.1-3.8 2.1-35.3v-32.7l5-1.3c6.2-1.6 15.9-7.9 19.8-12.9 3.6-4.6 7.7-12.6 8.7-17l.7-3.2H314v64.3c0 61.3.1 64.8 2 72.3 5 19.3 12.3 29.4 35.3 48.6 9.2 7.7 16.7 14.2 16.7 14.4 0 .2-50.6.4-112.5.4H143l16.2-13.5c9-7.5 18.8-16.6 22-20.5 6.9-8.4 12.1-18.8 14.8-29.4 1.9-7.5 2-11.2 2-72.3V296h15.6l1.7 5.6zM152 359.9c0 43-.3 60.8-1.2 63.2-2.4 7.1-6.4 11.3-26 27.8l-20.3 16.9-.3-49.2c-.3-52.7.3-62.9 4.2-74.5 5.4-16 19.1-31.9 34.3-39.9 4.3-2.3 8.1-4.2 8.6-4.2.4 0 .7 26.9.7 59.9z"></path>
  </symbol>
  <symbol xmlns="http://www.w3.org/2000/svg" fill="currentColor" viewBox="0 0 16 16" id="twitter">
    <path d="M5.026 15c6.038 0 9.341-5.003 9.341-9.334 0-.14 0-.282-.006-.422A6.685 6.685 0 0016 3.542a6.658 6.658 0 01-1.889.518 3.301 3.301 0 001.447-1.817 6.533 6.533 0 01-2.087.793A3.286 3.286 0 007.875 6.03a9.325 9.325 0 01-6.767-3.429 3.289 3.289 0 001.018 4.382A3.323 3.323 0 01.64 6.575v.045a3.288 3.288 0 002.632 3.218 3.203 3.203 0 01-.865.115 3.23 3.23 0 01-.614-.057 3.283 3.283 0 003.067 2.277A6.588 6.588 0 01.78 13.58a6.32 6.32 0 01-.78-.045A9.344 9.344 0 005.026 15z"></path>
  </symbol>
  <symbol xmlns="http://www.w3.org/2000/svg" fill="currentColor" viewBox="0 0 16 16" id="whatsapp">
    <path d="M13.601 2.326A7.854 7.854 0 007.994 0C3.627 0 .068 3.558.064 7.926c0 1.399.366 2.76 1.057 3.965L0 16l4.204-1.102a7.933 7.933 0 003.79.965h.004c4.368 0 7.926-3.558 7.93-7.93A7.898 7.898 0 0013.6 2.326zM7.994 14.521a6.573 6.573 0 01-3.356-.92l-.24-.144-2.494.654.666-2.433-.156-.251a6.56 6.56 0 01-1.007-3.505c0-3.626 2.957-6.584 6.591-6.584a6.56 6.56 0 014.66 1.931 6.557 6.557 0 011.928 4.66c-.004 3.639-2.961 6.592-6.592 6.592zm3.615-4.934c-.197-.099-1.17-.578-1.353-.646-.182-.065-.315-.099-.445.099-.133.197-.513.646-.627.775-.114.133-.232.148-.43.05-.197-.1-.836-.308-1.592-.985-.59-.525-.985-1.175-1.103-1.372-.114-.198-.011-.304.088-.403.087-.088.197-.232.296-.346.1-.114.133-.198.198-.33.065-.134.034-.248-.015-.347-.05-.099-.445-1.076-.612-1.47-.16-.389-.323-.335-.445-.34-.114-.007-.247-.007-.38-.007a.729.729 0 00-.529.247c-.182.198-.691.677-.691 1.654 0 .977.71 1.916.81 2.049.098.133 1.394 2.132 3.383 2.992.47.205.84.326 1.129.418.475.152.904.129 1.246.08.38-.058 1.171-.48 1.338-.943.164-.464.164-.86.114-.943-.049-.084-.182-.133-.38-.232z"></path>
  </symbol>
</svg>